<?xml version="1.0" encoding="utf-8"?>
<svg viewBox="0.847 4.418 501.843 299.221" xmlns="http://www.w3.org/2000/svg">
  <clipPath id="s">
    <path d="M0,0 v30 h60 v-30 z"/>
  </clipPath>
  <clipPath id="t">
    <path d="M30,15 h30 v15 z v15 h-30 z h-30 v-15 z v-15 h30 z"/>
  </clipPath>
  <g clip-path="url(#s)" transform="matrix(7.49474, 0, 0, 6.583961, 53.00529, 106.119779)" style="">
    <path d="M0,0 v30 h60 v-30 z" fill="#012169"/>
    <path d="M0,0 L60,30 M60,0 L0,30" stroke="#fff" stroke-width="6"/>
    <path d="M0,0 L60,30 M60,0 L0,30" clip-path="url(#t)" stroke="#C8102E" stroke-width="4"/>
    <path d="M30,0 v30 M0,15 h60" stroke="#fff" stroke-width="10"/>
    <path d="M30,0 v30 M0,15 h60" stroke="#C8102E" stroke-width="6"/>
  </g>
  <path fill="#fff" d="M 0.847 4.418 L 353.033 4.418 L 353.033 203.929 L 0.847 203.929 L 0.847 4.418 Z" style=""/>
  <path fill="red" d="M 0.847 4.418 L 353.033 4.418 L 353.033 104.174 L 0.847 104.174 L 0.847 4.418 Z" style=""/>
</svg>